PathFileType	4	(X/Y/Z)	/Users/visionmauri/1_5_1_f_1_Sports2D/1_5_1_f_1_Sports2D_px_person00.trc
DataRate	CameraRate	NumFrames	NumMarkers	Units	OrigDataRate	OrigDataStartFrame	OrigNumFrames
30.0	30.0	13	22	m	30.0	0	432
Frame#	Time	Hip			RHip			RKnee			RAnkle			RBigToe			RSmallToe			RHeel			LHip			LKnee			LAnkle			LBigToe			LSmallToe			LHeel			Neck			Head			Nose			RShoulder			RElbow			RWrist			LShoulder			LElbow			LWrist			
		X1	Y1	Z1	X2	Y2	Z2	X3	Y3	Z3	X4	Y4	Z4	X5	Y5	Z5	X6	Y6	Z6	X7	Y7	Z7	X8	Y8	Z8	X9	Y9	Z9	X10	Y10	Z10	X11	Y11	Z11	X12	Y12	Z12	X13	Y13	Z13	X14	Y14	Z14	X15	Y15	Z15	X16	Y16	Z16	X17	Y17	Z17	X18	Y18	Z18	X19	Y19	Z19	X20	Y20	Z20	X21	Y21	Z21	X22	Y22	Z22
0	0.0	593.3061300383781	876.6653822565692	0.0	680.8499586793987	914.1832457154865	0.0	655.837380784991	1235.1779283136184	0.0	618.3186759886456	1552.0039850570233	0.0	597.4744965574218	1572.8483934809417	0.0	655.8373896304819	1585.356103109206	0.0	614.1497099776756	1610.3667965870488	0.0	505.7622217491201	905.8462971988752	0.0	497.42536560473695	1205.997283335472	0.0	476.58048185638745	1526.9903813835756	0.0	472.41240707741025	1614.5343638433385	0.0	422.38716034920685	1610.3657599128742	0.0	484.91821890215255	1581.1852990686962	0.0	597.4751039721716	397.25996358751405	0.0	597.4753524983531	288.8699568695933	0.0	609.9798765978228	372.24404145205165	0.0	760.0564033655212	468.1270983971146	0.0	835.093802291814	689.0720401037818	0.0	839.2622943383195	880.8341424018846	0.0	447.39996599766044	451.4521967393275	0.0	364.02452118805115	701.5775974930363	0.0	376.52989881247703	722.4193215365084	0.0
1	0.03341067285382831	593.0226262764469	874.4053400210097	0.0	679.598338677264	915.8554838758738	0.0	655.351616132732	1236.0941503200736	0.0	618.177976217335	1550.273158138965	0.0	598.9951755829011	1573.3866268551983	0.0	658.13155478619	1585.6446878623099	0.0	613.8336745003194	1609.2066110558155	0.0	505.16101248577104	906.3948974222843	0.0	498.04400250800535	1205.5262344256475	0.0	477.78816591474776	1525.3082586976143	0.0	471.16757156131814	1620.0753081223609	0.0	422.78066980929987	1618.1321473544263	0.0	483.3567370532942	1584.3033864804113	0.0	598.6951416450299	395.9978856727601	0.0	598.9298873472411	287.70355123217377	0.0	610.1750948943888	368.51162444253225	0.0	761.1149056269766	466.23116889088004	0.0	832.914987526067	684.8726535774659	0.0	839.4287705928135	881.5337142633041	0.0	447.04941684980076	451.093252671842	0.0	365.72693348690393	702.7432719626502	0.0	378.6019231259925	720.3847837099825	0.0
2	0.06682134570765662	593.3869896328031	872.926977269895	0.0	679.6547846433443	919.1456665340875	0.0	654.7448875389936	1236.615228413322	0.0	617.984375196903	1550.1571977572944	0.0	600.8508821599324	1573.6997639919325	0.0	659.7283546327584	1586.5156917391744	0.0	612.6658321563336	1608.1053553452455	0.0	505.80013584269165	907.171253962795	0.0	499.1397203561038	1203.3820917509775	0.0	478.59893722377416	1524.468033550947	0.0	469.950553298611	1631.5192153914297	0.0	423.7876661924215	1630.3897786189505	0.0	482.0707970956757	1587.1407109618276	0.0	601.1271619422711	393.2771110735244	0.0	602.484974011154	287.68273269790734	0.0	615.4666794151898	366.75427360492796	0.0	762.5550636643495	464.2451203133035	0.0	832.277171979645	681.9009788849094	0.0	840.1573761128008	881.9766702215011	0.0	447.76261112500237	451.0985148185307	0.0	367.7437848119346	703.0804039864432	0.0	383.2749938246259	718.0060543050645	0.0
3	0.10023201856148492	595.1312814375516	873.2677902064173	0.0	682.1190113366289	922.9533901441716	0.0	654.2281525998278	1236.6982995750075	0.0	617.7736942794579	1552.0252535386487	0.0	602.0200989163556	1574.0642628695564	0.0	659.5233295662684	1588.1491117292949	0.0	611.1116200832187	1607.5509084284138	0.0	508.0700654269832	907.8374916240105	0.0	501.1791860245543	1198.1906024310676	0.0	478.68079058309206	1525.0710805397791	0.0	468.8330588315311	1644.5925156381882	0.0	425.19391102673166	1642.431693477977	0.0	481.6949259149867	1588.7292188802583	0.0	605.0403039330806	389.72871656308706	0.0	607.8250787203734	288.56277947636033	0.0	625.6158336957428	368.24221124314874	0.0	764.6776541010423	462.8592902240088	0.0	833.8020774578224	681.5409717219525	0.0	841.5535382919813	881.7387717857358	0.0	450.8655216827158	451.2236526499027	0.0	370.72515974667954	702.0501789280668	0.0	389.50024510794276	716.3935763741262	0.0
4	0.13364269141531324	597.9049878031454	874.3723668608683	0.0	685.6908489305379	924.2864206594693	0.0	654.1982715326195	1236.5528258912743	0.0	617.5720093567716	1554.181915981362	0.0	601.2427051643036	1575.5402370368613	0.0	657.6600475038174	1589.7378197988123	0.0	610.3501436286463	1607.3975057738814	0.0	510.65301420080914	907.9520131752193	0.0	503.8462557376755	1190.4354182398824	0.0	478.515480694848	1526.2289595680847	0.0	467.6888548792748	1651.3164261629597	0.0	426.3047454220608	1646.58041503673	0.0	482.2908385161333	1589.2381025015402	0.0	610.2834041418886	387.61685297958206	0.0	613.5107937851192	289.1816319707051	0.0	635.6487061199485	371.0064923774739	0.0	768.592668656017	462.7189624998821	0.0	836.1872116215701	682.5933088394285	0.0	842.877771510626	880.6894105727472	0.0	456.4948408094916	450.5624655916889	0.0	375.0125243116145	699.9966754550246	0.0	393.4357162135282	716.244370861533	0.0
5	0.16705336426914155	600.3214687664611	874.149251286165	0.0	687.6669543168094	922.412821345598	0.0	654.6556496962681	1236.7988946956834	0.0	617.2935862456308	1555.061641736835	0.0	599.1109199134668	1578.1753168848381	0.0	655.4982968322824	1590.129219490494	0.0	610.4636616965289	1606.8256693024452	0.0	512.4114548592553	907.2042524676448	0.0	505.6738790586599	1183.5622115680676	0.0	478.6066503841884	1526.716669456579	0.0	466.85349354098236	1651.5937358374958	0.0	427.27905145442304	1643.331943491037	0.0	483.03194822809314	1590.1900229379016	0.0	616.098916670112	388.29514115372814	0.0	618.7854976931326	289.6717175168287	0.0	641.6421044255121	372.1851324930531	0.0	774.4866877410785	463.6882388568646	0.0	837.9948394119396	682.4377952370762	0.0	843.4314643193748	879.4579736450734	0.0	462.52078356869816	448.95988352383176	0.0	379.2160942380859	697.3992787069942	0.0	393.966161778806	716.607039301762	0.0
6	0.20046403712296984	602.0691743687556	872.8059709576796	0.0	688.0861374782426	919.5064365622273	0.0	655.0779642398081	1238.2888175005278	0.0	617.1205618425226	1555.0330159256248	0.0	597.679419884587	1579.889277692248	0.0	654.1035584592953	1590.098254930853	0.0	610.3774145801915	1606.1607211438397	0.0	514.1063749965247	905.7365361901564	0.0	505.67324181503335	1180.6507734061524	0.0	478.22451858158405	1526.6668072368593	0.0	466.90184091811886	1650.7000397889512	0.0	428.7110946156555	1640.1041576010207	0.0	482.42460952436676	1592.4017654357717	0.0	621.1833039475222	390.9171727665366	0.0	623.1565005624215	290.9368664123424	0.0	643.2816536273737	372.71258906696625	0.0	779.818798607995	464.7268607251811	0.0	839.3062113020245	679.8071522860968	0.0	843.4986229909173	878.7502065178862	0.0	467.1575469700575	447.623022427045	0.0	382.31071768708466	694.6097253284564	0.0	394.25727437215005	716.2941312257688	0.0
7	0.23387470997679816	603.8230974092982	871.9071889537237	0.0	689.2759167941906	917.081237170049	0.0	655.1566401359	1240.5006332759203	0.0	617.4655560565636	1555.1739474696267	0.0	597.6062803725719	1579.0575101199438	0.0	653.7806932912638	1591.8770197442516	0.0	609.7233199852506	1607.0756747778714	0.0	516.2511155632609	904.9679512476895	0.0	504.2397868584578	1180.715553312521	0.0	476.31535482475294	1526.6849343367708	0.0	467.48519593036553	1651.028788162543	0.0	430.0880052345265	1641.2347737160476	0.0	479.1909682070642	1595.2147311545161	0.0	624.9991160311333	394.04125629078436	0.0	626.2494144466838	292.9797535147788	0.0	642.0750584883382	375.74258843328636	0.0	782.3962069401135	464.7699703456033	0.0	840.9779464334878	675.4065906139633	0.0	843.79242605517	878.4088349569378	0.0	471.32152724057283	447.5084144291765	0.0	385.75391396966563	692.4601631273962	0.0	396.45168376422623	715.2560605306951	0.0
8	0.2672853828306265	605.212275941814	871.7450930888514	0.0	691.4564547942521	915.402203960814	0.0	655.0578940746161	1241.7959798216746	0.0	617.9987377280393	1555.7029609300648	0.0	597.8995170984123	1576.6467009220928	0.0	654.1423073913066	1594.6511372868365	0.0	609.2257491036811	1609.8976515169013	0.0	517.831886595365	905.7916269188325	0.0	501.89544961657356	1180.2220077094187	0.0	473.2749741529291	1526.9955739087468	0.0	467.78855987321475	1651.9491780663925	0.0	430.6921551983278	1644.857478589126	0.0	474.3038213174428	1597.5849992901515	0.0	627.7992664350986	397.04402775840214	0.0	628.016932691404	295.51507790822797	0.0	640.5085668099666	381.1981441031864	0.0	783.013923016197	464.4312282101591	0.0	843.477249621624	671.497257766085	0.0	844.8269461419317	878.1462335066152	0.0	475.9371626605962	448.05543419301785	0.0	390.7828635896819	691.1323093771854	0.0	399.3362078692897	714.8376875782203	0.0
9	0.3006960556844548	605.5346296719733	871.6338963270513	0.0	692.7610731156065	915.3491151112779	0.0	654.9296445422679	1242.4173971599753	0.0	618.014010179247	1555.8456695027842	0.0	598.2831699916724	1574.4801447615591	0.0	654.5295418847866	1594.6922613876047	0.0	609.1252005804125	1612.5622768631788	0.0	518.336864490122	906.3085248951082	0.0	498.84914669668694	1176.3030293989625	0.0	470.8876636871794	1527.2886494717895	0.0	467.7916562218894	1651.6986020174245	0.0	431.0721540228385	1646.9350149624004	0.0	470.9198084689781	1598.009565712033	0.0	630.0946323252375	399.58070864364544	0.0	628.4657870001674	298.8046116680564	0.0	640.5919029176912	386.4741614877014	0.0	783.3197188532356	465.60439222634017	0.0	846.4078486705822	669.6017654408461	0.0	846.5021828495019	878.2228994922312	0.0	480.18771705431175	448.13504200304	0.0	396.51486315161327	688.6294461280925	0.0	401.5130768738574	716.3200892910588	0.0
10	0.3341067285382831	605.4075322161042	871.3638006874153	0.0	692.7472908981105	917.5206550396198	0.0	654.7878480880934	1243.9626218920105	0.0	617.8465841974482	1555.2122599738523	0.0	599.18497857398	1573.6149356322244	0.0	654.7319225374089	1592.4001924113113	0.0	608.8398639977077	1613.7904579022113	0.0	518.5164022755336	905.0180609483277	0.0	495.9403843410647	1169.196593371763	0.0	470.3459714060909	1525.475004430919	0.0	468.5254703518991	1647.8391420168007	0.0	432.01252020183915	1644.5149949313836	0.0	471.0354469106536	1594.5351283350803	0.0	632.435488145046	401.6675573492245	0.0	628.3024897684874	303.32212451352893	0.0	641.1855243408774	390.8370920356935	0.0	783.8373314600275	468.68754172899884	0.0	849.1660848404327	669.8019714032779	0.0	847.9405256614468	878.8832021474287	0.0	483.68279568940267	447.77894244521826	0.0	401.8219183998976	683.1656488976208	0.0	402.9693613241501	717.2318893975231	0.0
11	0.3675174013921114	605.8894774694619	871.0824936398552	0.0	692.3022907145033	920.3597122643592	0.0	654.8280627128718	1245.563391161922	0.0	618.3309662511815	1554.1867618344531	0.0	600.2746547036623	1574.9975638401606	0.0	655.0776919606188	1592.2905910133884	0.0	608.467051697218	1614.0543762276418	0.0	518.9728816683019	903.8354108107092	0.0	494.17312000602107	1161.6236787542532	0.0	471.30298263507757	1518.2864550330517	0.0	471.24816754268755	1639.7303033996025	0.0	433.6703945254376	1637.0189743763283	0.0	473.9046861919821	1585.806202852449	0.0	634.4343152313372	403.2055115691361	0.0	628.7212279378848	308.970790695829	0.0	640.127902339173	394.7735999257799	0.0	784.4215491204887	471.7613477384666	0.0	851.738849881117	671.6442203087344	0.0	848.6444529983381	880.2159361969254	0.0	486.6319929251578	447.6350668943855	0.0	406.49522537037615	677.2558574677784	0.0	404.63223128679255	711.7190629166057	0.0
12	0.4009280742459397	606.9668849674349	870.6986034451274	0.0	691.5417625814777	921.799456185463	0.0	655.4730503176066	1244.9776239731088	0.0	619.3437207178822	1552.358383594882	0.0	599.9177681062446	1579.5660886735227	0.0	655.547458484894	1595.531889692825	0.0	609.4889385231407	1612.3946375818825	0.0	519.5542658192736	904.0856388138441	0.0	493.258262542348	1153.4962452754535	0.0	472.7391605070321	1506.015227197297	0.0	476.17262743858385	1629.3784514493975	0.0	437.1399129582886	1625.4705809480927	0.0	478.0351801936129	1571.1317416302068	0.0	635.3573411865185	403.0709749647805	0.0	629.8576584173626	314.6065007704093	0.0	638.0227618702185	397.5008471212057	0.0	784.8675128724368	473.1810871361859	0.0	854.4536600936883	673.1413018113986	0.0	849.1691827747121	881.5668722725819	0.0	489.0007495297657	446.93683376715904	0.0	409.94190449633066	675.1837765761929	0.0	407.98999134023455	698.3500846128358	0.0
